Coordinates
version=1
nRows=11
nColumns=63
inDegrees=yes

Units are S.I. units (second, meters, Newtons, ...)
If the header above contains a line with 'inDegrees', this indicates whether rotational values are in degrees (yes) or radians (no).

endheader
time	pelvis_tilt	pelvis_list	pelvis_rotation	pelvis_tx	pelvis_ty	pelvis_tz	hip_flexion_r	hip_adduction_r	hip_rotation_r	knee_angle_r	knee_angle_r_beta	ankle_angle_r	subtalar_angle_r	mtp_angle_r	hip_flexion_l	hip_adduction_l	hip_rotation_l	knee_angle_l	knee_angle_l_beta	ankle_angle_l	subtalar_angle_l	mtp_angle_l	L5_S1_Flex_Ext	L5_S1_Lat_Bending	L5_S1_axial_rotation	L4_L5_Flex_Ext	L4_L5_Lat_Bending	L4_L5_axial_rotation	L3_L4_Flex_Ext	L3_L4_Lat_Bending	L3_L4_axial_rotation	L2_L3_Flex_Ext	L2_L3_Lat_Bending	L2_L3_axial_rotation	L1_L2_Flex_Ext	L1_L2_Lat_Bending	L1_L2_axial_rotation	L1_T12_Flex_Ext	L1_T12_Lat_Bending	L1_T12_axial_rotation	Abs_r3	Abs_r2	Abs_r1	Abs_t1	Abs_t2	neck_flexion	neck_bending	neck_rotation	arm_flex_r	arm_add_r	arm_rot_r	elbow_flex_r	pro_sup_r	wrist_flex_r	wrist_dev_r	arm_flex_l	arm_add_l	arm_rot_l	elbow_flex_l	pro_sup_l	wrist_flex_l	wrist_dev_l
      1.05084746	    -13.80387172	      9.44115108	     91.70823409	      0.20089600	      0.94937380	      0.74316591	     -9.29396096	    -12.60496025	    -13.16865780	     15.05434387	      0.26274787	     28.29421483	     16.76831892	      0.00000000	     -8.92830589	      9.70924077	     -4.38804803	     14.24439870	      0.24861166	     15.35230411	      2.01842144	      0.00000000	     -1.55298513	     -1.88444549	     -5.95159793	     -2.88404869	     -2.50631250	     -6.32357280	     -2.55139928	     -4.58184077	     -6.32357280	     -1.77490671	     -4.58184077	     -5.20764819	     -1.44210199	     -3.84276125	     -4.83567332	     -0.88737571	     -2.91900607	     -4.46369845	    -11.09281751	    -21.31722430	    -33.10100221	      0.00000000	      0.00000000	      1.10842709	     10.85717193	     36.10789552	     60.35622816	     43.71294742	    174.19920016	      0.03942237	      0.46753056	    -69.91850075	    -24.64502515	     -3.64252418	    -21.36324229	     90.16606683	      5.30263405	      1.54617351	     -5.00453772	    -14.92496419
      1.06779661	    -14.22195498	     10.20425412	     91.69677451	      0.20121022	      0.94893416	      0.74464758	     -9.90504052	    -13.06163581	    -13.09635040	     15.37548109	      0.26835277	     28.78979098	     16.73790966	      0.00000000	     -9.55718319	     10.10007417	     -4.52083618	     14.54718643	      0.25389630	     15.52364837	      2.06457196	      0.00000000	     -1.61380612	     -1.88510170	     -6.11029824	     -2.99699935	     -2.50718525	     -6.49219188	     -2.65132207	     -4.58343626	     -6.49219188	     -1.84441901	     -4.58343626	     -5.34651096	     -1.49858036	     -3.84409938	     -4.96461732	     -0.92212882	     -2.92002253	     -4.58272368	    -11.52725573	    -21.32464739	    -33.98364573	      0.00000000	      0.00000000	      1.33945436	      8.96486037	     37.40314691	     64.48090079	     46.12692545	    173.77499902	      0.03792840	      0.46438373	    -69.92478767	    -24.67013235	     -4.16409192	    -21.17892254	     90.08805198	      5.10852125	      1.39165438	     -5.17213870	    -14.90555622
      1.08474576	    -14.57174219	     11.03342312	     92.40725804	      0.20061046	      0.94892264	      0.74592772	    -10.91662157	    -13.30405019	    -14.01886331	     15.53199733	      0.27108449	     29.15901531	     16.85828122	      0.00000000	    -10.40056791	     10.25631429	     -4.21384581	     14.71252925	      0.25678208	     15.83993359	      2.67927335	      0.00000000	     -1.71217553	     -1.87808578	     -6.40413575	     -3.17968117	     -2.49785408	     -6.80439423	     -2.81293317	     -4.56637775	     -6.80439423	     -1.95684541	     -4.56637775	     -5.60361878	     -1.58992619	     -3.82979251	     -5.20336030	     -0.97833710	     -2.90915487	     -4.80310181	    -12.22989857	    -21.24528191	    -35.61788180	      0.00000000	      0.00000000	      1.96873188	      7.37810931	     38.62568139	     68.58775662	     48.40236507	    173.60847430	      0.03625861	      0.46131796	    -69.93086709	    -24.69441348	     -4.71336323	    -21.26863095	     88.83951098	      5.61812920	      1.33616041	     -5.25913513	    -14.97704277
      1.10169492	    -14.93645350	     11.72843554	     92.40837853	      0.20068701	      0.94848493	      0.74679504	    -11.51789471	    -13.71373544	    -14.01559211	     15.86653682	      0.27692331	     29.56344734	     16.80513517	      0.00000000	    -11.02285220	     10.60875095	     -4.30511257	     14.93697715	      0.26069943	     16.07950213	      2.63246431	      0.00000000	     -1.75683293	     -1.87556696	     -6.53123437	     -3.26261443	     -2.49450406	     -6.93943652	     -2.88630082	     -4.56025351	     -6.93943652	     -2.00788435	     -4.56025351	     -5.71483007	     -1.63139506	     -3.82465615	     -5.30662793	     -1.00385434	     -2.90525322	     -4.89842578	    -12.54888193	    -21.21678858	    -36.32476620	      0.00000000	      0.00000000	      2.03093410	      5.79512999	     39.84535947	     72.43598054	     50.36073406	    173.12810866	      0.03446728	      0.46693669	    -69.93634016	    -24.72050368	     -5.11313032	    -21.44545809	     88.62516657	      6.32392198	      1.31568763	     -5.23078446	    -14.45521973
      1.11864407	    -15.29295446	     12.49134016	     92.64999800	      0.20030796	      0.94803266	      0.74770283	    -12.26781703	    -14.08502313	    -14.33392520	     16.26089686	      0.28380619	     29.90567566	     16.69013227	      0.00000000	    -11.79462558	     10.91279599	     -4.20449864	     15.03665716	      0.26243918	     16.33223010	      2.69943144	      0.00000000	     -1.83250258	     -1.86982276	     -6.66849377	     -3.40314054	     -2.48686427	     -7.08527463	     -3.01061848	     -4.54628707	     -7.08527463	     -2.09436720	     -4.54628707	     -5.83493205	     -1.70166189	     -3.81294258	     -5.41815119	     -1.04709197	     -2.89635546	     -5.00137033	    -13.08938266	    -21.15180906	    -37.08816179	      0.00000000	      0.00000000	      2.45739353	      4.53656455	     41.01368413	     76.40367884	     52.06067456	    172.22934366	      0.03278700	      0.47483136	    -69.94071346	    -24.74173562	     -5.28953329	    -21.84407363	     87.93877617	      7.45965353	      1.31410056	     -5.15891359	    -13.73406496
      1.13559322	    -15.69512705	     13.21101356	     93.34221063	      0.19923275	      0.94765342	      0.74823556	    -13.26491434	    -14.44493689	    -15.66148394	     16.47358209	      0.28751825	     30.15637817	     17.21798880	      0.00000000	    -12.59844860	     11.20225282	     -3.44236703	     15.12600318	      0.26399856	     16.51855954	      2.46674623	      0.00000000	     -1.90251920	     -1.87150755	     -6.86780377	     -3.53316841	     -2.48910504	     -7.29704151	     -3.12564880	     -4.55038346	     -7.29704151	     -2.17438920	     -4.55038346	     -6.00932830	     -1.76667933	     -3.81637820	     -5.58009057	     -1.08709947	     -2.89896520	     -5.15085283	    -13.58950441	    -21.17086773	    -38.19666424	      0.00000000	      0.00000000	      2.69930368	      3.46977778	     41.76155800	     80.13107279	     53.46051780	    170.67098565	      0.03137548	      0.49869784	    -69.94388534	    -24.76188836	     -6.10441470	    -22.93039916	     78.75098738	     11.02347435	      2.44118146	     -5.39400073	    -13.20199858
      1.15254237	    -15.95504885	     13.73502687	     93.43141730	      0.19857758	      0.94695784	      0.74853881	    -13.76278955	    -14.76272380	    -15.72225419	     16.85329646	      0.29414551	     30.36795976	     17.05991821	      0.00000000	    -13.10393165	     11.46824799	     -3.48155052	     15.27718602	      0.26663720	     16.78204905	      2.43514189	      0.00000000	     -1.93769489	     -1.85740581	     -6.92589955	     -3.59849317	     -2.47034972	     -7.35876827	     -3.18343893	     -4.51609647	     -7.35876827	     -2.21459149	     -4.51609647	     -6.06016211	     -1.79934347	     -3.78762192	     -5.62729339	     -1.10719886	     -2.87712159	     -5.19442466	    -13.84076081	    -21.01134595	    -38.51977554	      0.00000000	      0.00000000	      2.74601075	      2.42012186	     42.50417861	     83.36518516	     54.40584939	    169.48886580	      0.03011704	      0.50062125	    -69.94614049	    -24.77378789	     -6.25725011	    -23.14042122	     78.70790985	     11.77301149	      2.54401635	     -5.25261438	    -12.81747534
      1.16949153	    -16.38089460	     14.35442517	     93.75956319	      0.19863306	      0.94677313	      0.74935276	    -14.40710685	    -15.15767931	    -16.30216385	     17.25701543	      0.30119174	     30.61226617	     17.17155791	      0.00000000	    -13.76707309	     11.78957268	     -3.28317888	     15.29462368	      0.26694154	     16.75746985	      2.45560214	      0.00000000	     -2.00261414	     -1.88664758	     -7.02613413	     -3.71905472	     -2.50924129	     -7.46526752	     -3.29009477	     -4.58719493	     -7.46526752	     -2.28878770	     -4.58719493	     -6.14786737	     -1.85962749	     -3.84725175	     -5.70873398	     -1.14429372	     -2.92241711	     -5.26960060	    -14.30447253	    -21.34213479	    -39.07725020	      0.00000000	      0.00000000	      3.26560790	      1.90556271	     42.86359508	     86.15958471	     55.22997549	    167.68862104	      0.02966752	      0.54293442	    -69.94757141	    -24.78638707	     -7.43169712	    -24.13068136	     69.33891934	     14.63432780	      5.76228375	     -5.86525018	    -12.26703552
      1.18644068	    -16.53979646	     14.75232059	     93.81921162	      0.19870688	      0.94680356	      0.74991025	    -14.72032018	    -15.31376946	    -16.33170511	     17.54664287	      0.30624669	     30.75706740	     17.14323709	      0.00000000	    -14.11325385	     11.91683671	     -3.38582663	     15.38377686	      0.26849756	     16.78562577	      2.41284164	      0.00000000	     -2.03536054	     -1.88497325	     -7.07709814	     -3.77986807	     -2.50701442	     -7.51941678	     -3.34389384	     -4.58312396	     -7.51941678	     -2.32621357	     -4.58312396	     -6.19246087	     -1.89003580	     -3.84383745	     -5.75014224	     -1.16300501	     -2.91982357	     -5.30782361	    -14.53837683	    -21.32319442	    -39.36069674	      0.00000000	      0.00000000	      3.41194662	      1.26162802	     43.32067308	     88.02307142	     55.74033855	    167.09976087	      0.02909348	      0.55256662	    -69.94867981	    -24.79266917	     -7.62355615	    -24.36407015	     69.25781693	     15.01124558	      5.68805242	     -5.81797149	    -12.35781118
      1.20338983	    -16.65575707	     14.96821035	     93.89743808	      0.19887857	      0.94702258	      0.75046168	    -14.87646378	    -15.38830890	    -16.26223214	     17.64923071	      0.30803719	     30.85184150	     17.20627118	      0.00000000	    -14.28923453	     12.00033582	     -3.47547302	     15.38196666	      0.26846596	     16.78806600	      2.36680636	      0.00000000	     -2.04574592	     -1.88397982	     -7.12156444	     -3.79915475	     -2.50569316	     -7.56666222	     -3.36095597	     -4.58070854	     -7.56666222	     -2.33808301	     -4.58070854	     -6.23136888	     -1.89967966	     -3.84181165	     -5.78627111	     -1.16893922	     -2.91828474	     -5.34117333	    -14.61255854	    -21.31195653	    -39.60800494	      0.00000000	      0.00000000	      3.39402614	      0.79273109	     43.57176567	     89.28690600	     56.07863453	    166.92765085	      0.02886227	      0.57071843	    -69.94957049	    -24.79881990	     -7.78226977	    -24.56471811	     69.19338732	     15.20403615	      5.65201193	     -5.87503316	    -12.53314119
      1.22033898	    -16.81376904	     15.29541447	     93.98979148	      0.19902791	      0.94744448	      0.75091475	    -15.12330358	    -15.50002459	    -16.18835562	     17.77925460	      0.31030653	     31.12124650	     17.27309531	      0.00000000	    -14.58044737	     12.11683229	     -3.49980209	     15.39875134	      0.26875891	     16.82553946	      2.33400581	      0.00000000	     -2.08374310	     -1.89099334	     -7.17101525	     -3.86971930	     -2.51502114	     -7.61920370	     -3.42338153	     -4.59776120	     -7.61920370	     -2.38150998	     -4.59776120	     -6.27463834	     -1.93496384	     -3.85611361	     -5.82644989	     -1.19065080	     -2.92914868	     -5.37826144	    -14.88396855	    -21.39129481	    -39.88303550	      0.00000000	      0.00000000	      3.77423050	      0.36745123	     43.76235855	     90.37416124	     56.39478874	    166.87133333	      0.02877469	      0.59424908	    -69.95007381	    -24.80472190	     -7.91121510	    -24.82618145	     69.14298792	     15.47461929	      5.69195369	     -6.18490562	    -13.05667531
